<mxfile host="65bd71144e">
    <diagram id="ISzEL4dl3lE7deFC1Ko6" name="第 1 页">
        <mxGraphModel dx="806" dy="2473" grid="1" gridSize="10" guides="1" tooltips="1" connect="1" arrows="1" fold="1" page="1" pageScale="1" pageWidth="1169" pageHeight="827" math="0" shadow="0">
            <root>
                <mxCell id="0"/>
                <mxCell id="1" parent="0"/>
                <mxCell id="157" value="" style="rounded=0;whiteSpace=wrap;html=1;fillStyle=auto;fontSize=10;" parent="1" vertex="1">
                    <mxGeometry y="-840" width="900" height="750" as="geometry"/>
                </mxCell>
                <mxCell id="133" value="" style="ellipse;whiteSpace=wrap;html=1;fillStyle=auto;fontSize=15;fillColor=#b0e3e6;strokeColor=#0e8088;opacity=70;" parent="1" vertex="1">
                    <mxGeometry x="430" y="-290" width="180" height="150" as="geometry"/>
                </mxCell>
                <mxCell id="132" value="" style="ellipse;whiteSpace=wrap;html=1;fillStyle=auto;fontSize=15;fontColor=#ffffff;fillColor=#6d8764;strokeColor=#3A5431;rotation=-75;gradientColor=none;opacity=70;" parent="1" vertex="1">
                    <mxGeometry x="450.77" y="-346.64" width="160" height="89.75" as="geometry"/>
                </mxCell>
                <mxCell id="42" value="" style="ellipse" parent="1" vertex="1">
                    <mxGeometry x="60" y="-680" width="80" height="80" as="geometry"/>
                </mxCell>
                <mxCell id="43" value="" style="endArrow=none;html=1;" parent="1" edge="1">
                    <mxGeometry width="50" height="50" relative="1" as="geometry">
                        <mxPoint x="160" y="-580" as="sourcePoint"/>
                        <mxPoint x="40" y="-700" as="targetPoint"/>
                    </mxGeometry>
                </mxCell>
                <mxCell id="44" value="&lt;font style=&quot;font-size: 15px;&quot;&gt;空树&lt;/font&gt;" style="text;html=1;strokeColor=none;fillColor=none;align=center;verticalAlign=middle;whiteSpace=wrap;rounded=0;" parent="1" vertex="1">
                    <mxGeometry x="60" y="-540" width="80" height="40" as="geometry"/>
                </mxCell>
                <mxCell id="45" value="A" style="ellipse;whiteSpace=wrap;html=1;aspect=fixed;" parent="1" vertex="1">
                    <mxGeometry x="240" y="-680" width="80" height="80" as="geometry"/>
                </mxCell>
                <mxCell id="46" value="&lt;font style=&quot;font-size: 15px;&quot;&gt;单个节点&lt;/font&gt;" style="text;html=1;strokeColor=none;fillColor=none;align=center;verticalAlign=middle;whiteSpace=wrap;rounded=0;" parent="1" vertex="1">
                    <mxGeometry x="240" y="-540" width="80" height="40" as="geometry"/>
                </mxCell>
                <mxCell id="47" value="A" style="ellipse;whiteSpace=wrap;html=1;aspect=fixed;fontSize=15;" parent="1" vertex="1">
                    <mxGeometry x="600" y="-800" width="40" height="40" as="geometry"/>
                </mxCell>
                <mxCell id="48" value="B" style="ellipse;whiteSpace=wrap;html=1;aspect=fixed;fontSize=15;" parent="1" vertex="1">
                    <mxGeometry x="480" y="-720" width="40" height="40" as="geometry"/>
                </mxCell>
                <mxCell id="49" value="C" style="ellipse;whiteSpace=wrap;html=1;aspect=fixed;fontSize=15;" parent="1" vertex="1">
                    <mxGeometry x="600" y="-720" width="40" height="40" as="geometry"/>
                </mxCell>
                <mxCell id="50" value="D" style="ellipse;whiteSpace=wrap;html=1;aspect=fixed;fontSize=15;" parent="1" vertex="1">
                    <mxGeometry x="720" y="-720" width="40" height="40" as="geometry"/>
                </mxCell>
                <mxCell id="52" value="H" style="ellipse;whiteSpace=wrap;html=1;aspect=fixed;fontSize=15;" parent="1" vertex="1">
                    <mxGeometry x="680" y="-640" width="40" height="40" as="geometry"/>
                </mxCell>
                <mxCell id="53" value="I" style="ellipse;whiteSpace=wrap;html=1;aspect=fixed;fontSize=15;" parent="1" vertex="1">
                    <mxGeometry x="760" y="-640" width="40" height="40" as="geometry"/>
                </mxCell>
                <mxCell id="54" value="E" style="ellipse;whiteSpace=wrap;html=1;aspect=fixed;fontSize=15;" parent="1" vertex="1">
                    <mxGeometry x="440" y="-640" width="40" height="40" as="geometry"/>
                </mxCell>
                <mxCell id="55" value="F" style="ellipse;whiteSpace=wrap;html=1;aspect=fixed;fontSize=15;" parent="1" vertex="1">
                    <mxGeometry x="520" y="-640" width="40" height="40" as="geometry"/>
                </mxCell>
                <mxCell id="56" value="J" style="ellipse;whiteSpace=wrap;html=1;aspect=fixed;fontSize=15;" parent="1" vertex="1">
                    <mxGeometry x="440" y="-560" width="40" height="40" as="geometry"/>
                </mxCell>
                <mxCell id="57" value="" style="endArrow=none;html=1;fontSize=15;exitX=0.5;exitY=0;exitDx=0;exitDy=0;entryX=0;entryY=1;entryDx=0;entryDy=0;" parent="1" source="48" target="47" edge="1">
                    <mxGeometry width="50" height="50" relative="1" as="geometry">
                        <mxPoint x="550" y="-720" as="sourcePoint"/>
                        <mxPoint x="600" y="-770" as="targetPoint"/>
                    </mxGeometry>
                </mxCell>
                <mxCell id="58" value="" style="endArrow=none;html=1;fontSize=15;entryX=0.5;entryY=1;entryDx=0;entryDy=0;exitX=0.5;exitY=0;exitDx=0;exitDy=0;" parent="1" source="49" target="47" edge="1">
                    <mxGeometry width="50" height="50" relative="1" as="geometry">
                        <mxPoint x="590" y="-690" as="sourcePoint"/>
                        <mxPoint x="640" y="-740" as="targetPoint"/>
                    </mxGeometry>
                </mxCell>
                <mxCell id="59" value="" style="endArrow=none;html=1;fontSize=15;exitX=1;exitY=1;exitDx=0;exitDy=0;entryX=0.5;entryY=0;entryDx=0;entryDy=0;" parent="1" source="47" target="50" edge="1">
                    <mxGeometry width="50" height="50" relative="1" as="geometry">
                        <mxPoint x="770" y="-720" as="sourcePoint"/>
                        <mxPoint x="820" y="-770" as="targetPoint"/>
                    </mxGeometry>
                </mxCell>
                <mxCell id="60" value="" style="endArrow=none;html=1;fontSize=15;entryX=0;entryY=1;entryDx=0;entryDy=0;exitX=0.5;exitY=0;exitDx=0;exitDy=0;" parent="1" source="52" target="50" edge="1">
                    <mxGeometry width="50" height="50" relative="1" as="geometry">
                        <mxPoint x="650" y="-500" as="sourcePoint"/>
                        <mxPoint x="700" y="-550" as="targetPoint"/>
                    </mxGeometry>
                </mxCell>
                <mxCell id="61" value="" style="endArrow=none;html=1;fontSize=15;exitX=1;exitY=1;exitDx=0;exitDy=0;entryX=0.5;entryY=0;entryDx=0;entryDy=0;" parent="1" source="50" target="53" edge="1">
                    <mxGeometry width="50" height="50" relative="1" as="geometry">
                        <mxPoint x="900" y="-660" as="sourcePoint"/>
                        <mxPoint x="950" y="-710" as="targetPoint"/>
                    </mxGeometry>
                </mxCell>
                <mxCell id="63" value="" style="endArrow=none;html=1;fontSize=15;entryX=0;entryY=1;entryDx=0;entryDy=0;exitX=0.5;exitY=0;exitDx=0;exitDy=0;" parent="1" source="54" target="48" edge="1">
                    <mxGeometry width="50" height="50" relative="1" as="geometry">
                        <mxPoint x="450" y="-610" as="sourcePoint"/>
                        <mxPoint x="500" y="-660" as="targetPoint"/>
                    </mxGeometry>
                </mxCell>
                <mxCell id="64" value="" style="endArrow=none;html=1;fontSize=15;entryX=1;entryY=1;entryDx=0;entryDy=0;exitX=0.5;exitY=0;exitDx=0;exitDy=0;" parent="1" source="55" target="48" edge="1">
                    <mxGeometry width="50" height="50" relative="1" as="geometry">
                        <mxPoint x="590" y="-480" as="sourcePoint"/>
                        <mxPoint x="560" y="-680" as="targetPoint"/>
                    </mxGeometry>
                </mxCell>
                <mxCell id="65" value="" style="endArrow=none;html=1;fontSize=15;entryX=0.5;entryY=1;entryDx=0;entryDy=0;exitX=0.5;exitY=0;exitDx=0;exitDy=0;" parent="1" source="56" target="54" edge="1">
                    <mxGeometry width="50" height="50" relative="1" as="geometry">
                        <mxPoint x="540" y="-510" as="sourcePoint"/>
                        <mxPoint x="590" y="-560" as="targetPoint"/>
                    </mxGeometry>
                </mxCell>
                <mxCell id="66" value="K" style="ellipse;whiteSpace=wrap;html=1;aspect=fixed;fontSize=15;" parent="1" vertex="1">
                    <mxGeometry x="540" y="-560" width="40" height="40" as="geometry"/>
                </mxCell>
                <mxCell id="67" value="L" style="ellipse;whiteSpace=wrap;html=1;aspect=fixed;fontSize=15;" parent="1" vertex="1">
                    <mxGeometry x="660" y="-560" width="40" height="40" as="geometry"/>
                </mxCell>
                <mxCell id="68" value="" style="endArrow=none;html=1;fontSize=15;entryX=0;entryY=1;entryDx=0;entryDy=0;exitX=0.5;exitY=0;exitDx=0;exitDy=0;" parent="1" source="66" target="70" edge="1">
                    <mxGeometry width="50" height="50" relative="1" as="geometry">
                        <mxPoint x="560" y="-484.14" as="sourcePoint"/>
                        <mxPoint x="605.8578643762801" y="-599.9978643762801" as="targetPoint"/>
                    </mxGeometry>
                </mxCell>
                <mxCell id="69" value="" style="endArrow=none;html=1;fontSize=15;entryX=1;entryY=1;entryDx=0;entryDy=0;exitX=0.5;exitY=0;exitDx=0;exitDy=0;" parent="1" source="67" target="70" edge="1">
                    <mxGeometry width="50" height="50" relative="1" as="geometry">
                        <mxPoint x="660" y="-444.14" as="sourcePoint"/>
                        <mxPoint x="634.1421356237199" y="-599.9978643762801" as="targetPoint"/>
                    </mxGeometry>
                </mxCell>
                <mxCell id="70" value="G" style="ellipse;whiteSpace=wrap;html=1;aspect=fixed;fontSize=15;" parent="1" vertex="1">
                    <mxGeometry x="600" y="-640" width="40" height="40" as="geometry"/>
                </mxCell>
                <mxCell id="71" value="" style="endArrow=none;html=1;fontSize=15;entryX=0.5;entryY=1;entryDx=0;entryDy=0;exitX=0.5;exitY=0;exitDx=0;exitDy=0;" parent="1" source="70" target="49" edge="1">
                    <mxGeometry width="50" height="50" relative="1" as="geometry">
                        <mxPoint x="560" y="-620" as="sourcePoint"/>
                        <mxPoint x="610" y="-670" as="targetPoint"/>
                    </mxGeometry>
                </mxCell>
                <mxCell id="73" value="树" style="text;html=1;strokeColor=none;fillColor=none;align=center;verticalAlign=middle;whiteSpace=wrap;rounded=0;fontSize=15;" parent="1" vertex="1">
                    <mxGeometry x="580" y="-520" width="80" height="40" as="geometry"/>
                </mxCell>
                <mxCell id="74" value="A" style="ellipse;whiteSpace=wrap;html=1;aspect=fixed;fontSize=15;" parent="1" vertex="1">
                    <mxGeometry x="260" y="-440" width="40" height="40" as="geometry"/>
                </mxCell>
                <mxCell id="75" value="C" style="ellipse;whiteSpace=wrap;html=1;aspect=fixed;fontSize=15;" parent="1" vertex="1">
                    <mxGeometry x="260" y="-360" width="40" height="40" as="geometry"/>
                </mxCell>
                <mxCell id="76" value="D" style="ellipse;whiteSpace=wrap;html=1;aspect=fixed;fontSize=15;" parent="1" vertex="1">
                    <mxGeometry x="320" y="-360" width="40" height="40" as="geometry"/>
                </mxCell>
                <mxCell id="77" value="B" style="ellipse;whiteSpace=wrap;html=1;aspect=fixed;fontSize=15;" parent="1" vertex="1">
                    <mxGeometry x="200" y="-360" width="40" height="40" as="geometry"/>
                </mxCell>
                <mxCell id="78" value="" style="endArrow=none;html=1;fontSize=15;entryX=0.5;entryY=1;entryDx=0;entryDy=0;exitX=0.5;exitY=0;exitDx=0;exitDy=0;" parent="1" source="75" target="74" edge="1">
                    <mxGeometry width="50" height="50" relative="1" as="geometry">
                        <mxPoint x="160" y="-330" as="sourcePoint"/>
                        <mxPoint x="210" y="-380" as="targetPoint"/>
                    </mxGeometry>
                </mxCell>
                <mxCell id="79" value="" style="endArrow=none;html=1;fontSize=15;entryX=1;entryY=1;entryDx=0;entryDy=0;exitX=0.5;exitY=0;exitDx=0;exitDy=0;" parent="1" source="76" target="74" edge="1">
                    <mxGeometry width="50" height="50" relative="1" as="geometry">
                        <mxPoint x="290" y="-240" as="sourcePoint"/>
                        <mxPoint x="320" y="-400" as="targetPoint"/>
                    </mxGeometry>
                </mxCell>
                <mxCell id="80" value="" style="endArrow=none;html=1;fontSize=15;entryX=0;entryY=1;entryDx=0;entryDy=0;exitX=0.5;exitY=0;exitDx=0;exitDy=0;" parent="1" source="77" target="74" edge="1">
                    <mxGeometry width="50" height="50" relative="1" as="geometry">
                        <mxPoint x="170" y="-350" as="sourcePoint"/>
                        <mxPoint x="220" y="-400" as="targetPoint"/>
                    </mxGeometry>
                </mxCell>
                <mxCell id="81" value="E" style="ellipse;whiteSpace=wrap;html=1;aspect=fixed;fontSize=15;" parent="1" vertex="1">
                    <mxGeometry x="200" y="-280" width="40" height="40" as="geometry"/>
                </mxCell>
                <mxCell id="82" value="" style="endArrow=none;html=1;fontSize=15;entryX=0.5;entryY=1;entryDx=0;entryDy=0;" parent="1" source="81" target="77" edge="1">
                    <mxGeometry width="50" height="50" relative="1" as="geometry">
                        <mxPoint x="120" y="-210" as="sourcePoint"/>
                        <mxPoint x="170" y="-260" as="targetPoint"/>
                    </mxGeometry>
                </mxCell>
                <mxCell id="83" value="F" style="ellipse;whiteSpace=wrap;html=1;aspect=fixed;fontSize=15;" parent="1" vertex="1">
                    <mxGeometry x="160" y="-200" width="40" height="40" as="geometry"/>
                </mxCell>
                <mxCell id="84" value="G" style="ellipse;whiteSpace=wrap;html=1;aspect=fixed;fontSize=15;" parent="1" vertex="1">
                    <mxGeometry x="240" y="-200" width="40" height="40" as="geometry"/>
                </mxCell>
                <mxCell id="85" value="" style="endArrow=none;html=1;fontSize=15;entryX=0;entryY=1;entryDx=0;entryDy=0;exitX=0.5;exitY=0;exitDx=0;exitDy=0;" parent="1" source="83" target="81" edge="1">
                    <mxGeometry width="50" height="50" relative="1" as="geometry">
                        <mxPoint x="120" y="-180" as="sourcePoint"/>
                        <mxPoint x="170" y="-230" as="targetPoint"/>
                    </mxGeometry>
                </mxCell>
                <mxCell id="86" value="" style="endArrow=none;html=1;fontSize=15;entryX=1;entryY=1;entryDx=0;entryDy=0;exitX=0.5;exitY=0;exitDx=0;exitDy=0;" parent="1" source="84" target="81" edge="1">
                    <mxGeometry width="50" height="50" relative="1" as="geometry">
                        <mxPoint x="270" y="-160" as="sourcePoint"/>
                        <mxPoint x="320" y="-210" as="targetPoint"/>
                    </mxGeometry>
                </mxCell>
                <mxCell id="88" value="深度为1" style="text;html=1;strokeColor=none;fillColor=none;align=center;verticalAlign=middle;whiteSpace=wrap;rounded=0;fontSize=15;" parent="1" vertex="1">
                    <mxGeometry x="40" y="-440" width="80" height="35" as="geometry"/>
                </mxCell>
                <mxCell id="89" value="深度为2" style="text;html=1;strokeColor=none;fillColor=none;align=center;verticalAlign=middle;whiteSpace=wrap;rounded=0;fontSize=15;" parent="1" vertex="1">
                    <mxGeometry x="40" y="-360" width="80" height="40" as="geometry"/>
                </mxCell>
                <mxCell id="91" value="深度为3" style="text;html=1;strokeColor=none;fillColor=none;align=center;verticalAlign=middle;whiteSpace=wrap;rounded=0;fontSize=15;" parent="1" vertex="1">
                    <mxGeometry x="40" y="-280" width="80" height="40" as="geometry"/>
                </mxCell>
                <mxCell id="92" value="深度为4" style="text;html=1;strokeColor=none;fillColor=none;align=center;verticalAlign=middle;whiteSpace=wrap;rounded=0;fontSize=15;" parent="1" vertex="1">
                    <mxGeometry x="40" y="-200" width="80" height="40" as="geometry"/>
                </mxCell>
                <mxCell id="97" value="" style="endArrow=none;dashed=1;html=1;fontSize=15;entryX=0.5;entryY=1;entryDx=0;entryDy=0;" parent="1" target="74" edge="1">
                    <mxGeometry width="50" height="50" relative="1" as="geometry">
                        <mxPoint x="40" y="-400" as="sourcePoint"/>
                        <mxPoint x="90" y="-450" as="targetPoint"/>
                    </mxGeometry>
                </mxCell>
                <mxCell id="98" value="" style="endArrow=none;dashed=1;html=1;fontSize=15;entryX=0.5;entryY=1;entryDx=0;entryDy=0;" parent="1" target="76" edge="1">
                    <mxGeometry width="50" height="50" relative="1" as="geometry">
                        <mxPoint x="40" y="-320" as="sourcePoint"/>
                        <mxPoint x="90" y="-370" as="targetPoint"/>
                    </mxGeometry>
                </mxCell>
                <mxCell id="99" value="" style="endArrow=none;dashed=1;html=1;fontSize=15;entryX=0.5;entryY=1;entryDx=0;entryDy=0;" parent="1" target="81" edge="1">
                    <mxGeometry width="50" height="50" relative="1" as="geometry">
                        <mxPoint x="40" y="-240" as="sourcePoint"/>
                        <mxPoint x="90" y="-290" as="targetPoint"/>
                    </mxGeometry>
                </mxCell>
                <mxCell id="100" value="" style="endArrow=none;dashed=1;html=1;fontSize=15;entryX=0.5;entryY=1;entryDx=0;entryDy=0;exitX=0;exitY=1;exitDx=0;exitDy=0;" parent="1" source="92" target="84" edge="1">
                    <mxGeometry width="50" height="50" relative="1" as="geometry">
                        <mxPoint x="40" y="-150" as="sourcePoint"/>
                        <mxPoint x="90" y="-200" as="targetPoint"/>
                    </mxGeometry>
                </mxCell>
                <mxCell id="109" value="" style="endArrow=none;html=1;fontSize=15;fillColor=#e51400;strokeColor=#B20000;" parent="1" edge="1">
                    <mxGeometry width="50" height="50" relative="1" as="geometry">
                        <mxPoint x="160" y="-160" as="sourcePoint"/>
                        <mxPoint x="160" y="-160" as="targetPoint"/>
                        <Array as="points">
                            <mxPoint x="280" y="-160"/>
                            <mxPoint x="280" y="-240"/>
                            <mxPoint x="280" y="-280"/>
                            <mxPoint x="280" y="-320"/>
                            <mxPoint x="360" y="-320"/>
                            <mxPoint x="360" y="-360"/>
                            <mxPoint x="300" y="-360"/>
                            <mxPoint x="240" y="-360"/>
                            <mxPoint x="240" y="-300"/>
                            <mxPoint x="240" y="-200"/>
                            <mxPoint x="160" y="-200"/>
                        </Array>
                    </mxGeometry>
                </mxCell>
                <mxCell id="112" value="&lt;font color=&quot;#ff3333&quot;&gt;叶节点&lt;/font&gt;" style="text;html=1;strokeColor=none;fillColor=none;align=center;verticalAlign=middle;whiteSpace=wrap;rounded=0;fontSize=15;" parent="1" vertex="1">
                    <mxGeometry x="320" y="-200" width="60" height="30" as="geometry"/>
                </mxCell>
                <mxCell id="115" value="" style="endArrow=none;dashed=1;html=1;fontSize=15;fontColor=#FF3333;entryX=0;entryY=0;entryDx=0;entryDy=0;fillColor=#e51400;strokeColor=#B20000;" parent="1" target="112" edge="1">
                    <mxGeometry width="50" height="50" relative="1" as="geometry">
                        <mxPoint x="280" y="-240" as="sourcePoint"/>
                        <mxPoint x="330" y="-290" as="targetPoint"/>
                    </mxGeometry>
                </mxCell>
                <mxCell id="116" value="" style="endArrow=none;html=1;fontSize=15;fontColor=#FF3333;fillColor=#e51400;strokeColor=#B20000;" parent="1" edge="1">
                    <mxGeometry width="50" height="50" relative="1" as="geometry">
                        <mxPoint x="260" y="-440" as="sourcePoint"/>
                        <mxPoint x="260" y="-440" as="targetPoint"/>
                        <Array as="points">
                            <mxPoint x="300" y="-440"/>
                            <mxPoint x="300" y="-400"/>
                            <mxPoint x="260" y="-400"/>
                        </Array>
                    </mxGeometry>
                </mxCell>
                <mxCell id="117" value="根节点" style="text;html=1;strokeColor=none;fillColor=none;align=center;verticalAlign=middle;whiteSpace=wrap;rounded=0;fontSize=15;fontColor=#FF3333;" parent="1" vertex="1">
                    <mxGeometry x="340" y="-432.5" width="50" height="25" as="geometry"/>
                </mxCell>
                <mxCell id="118" value="" style="endArrow=none;dashed=1;html=1;fontSize=15;fontColor=#FF3333;entryX=0;entryY=0.5;entryDx=0;entryDy=0;fillColor=#e51400;strokeColor=#B20000;" parent="1" target="117" edge="1">
                    <mxGeometry width="50" height="50" relative="1" as="geometry">
                        <mxPoint x="300" y="-420" as="sourcePoint"/>
                        <mxPoint x="330" y="-470" as="targetPoint"/>
                    </mxGeometry>
                </mxCell>
                <mxCell id="121" value="1" style="ellipse;whiteSpace=wrap;html=1;aspect=fixed;fillStyle=auto;fontSize=15;fontColor=#FF3333;fillColor=default;" parent="1" vertex="1">
                    <mxGeometry x="560" y="-440" width="40" height="40" as="geometry"/>
                </mxCell>
                <mxCell id="122" value="2" style="ellipse;whiteSpace=wrap;html=1;aspect=fixed;fillStyle=auto;fontSize=15;fontColor=#FF3333;fillColor=default;" parent="1" vertex="1">
                    <mxGeometry x="520" y="-360" width="40" height="40" as="geometry"/>
                </mxCell>
                <mxCell id="123" value="3" style="ellipse;whiteSpace=wrap;html=1;aspect=fixed;fillStyle=auto;fontSize=15;fontColor=#FF3333;fillColor=default;" parent="1" vertex="1">
                    <mxGeometry x="600" y="-360" width="40" height="40" as="geometry"/>
                </mxCell>
                <mxCell id="124" value="4" style="ellipse;whiteSpace=wrap;html=1;aspect=fixed;fillStyle=auto;fontSize=15;fontColor=#FF3333;fillColor=default;" parent="1" vertex="1">
                    <mxGeometry x="500" y="-280" width="40" height="40" as="geometry"/>
                </mxCell>
                <mxCell id="125" value="5" style="ellipse;whiteSpace=wrap;html=1;aspect=fixed;fillStyle=auto;fontSize=15;fontColor=#FF3333;fillColor=default;" parent="1" vertex="1">
                    <mxGeometry x="460" y="-200" width="40" height="40" as="geometry"/>
                </mxCell>
                <mxCell id="126" value="5" style="ellipse;whiteSpace=wrap;html=1;aspect=fixed;fillStyle=auto;fontSize=15;fontColor=#FF3333;fillColor=default;" parent="1" vertex="1">
                    <mxGeometry x="540" y="-200" width="40" height="40" as="geometry"/>
                </mxCell>
                <mxCell id="127" value="" style="endArrow=none;html=1;fontSize=15;fontColor=#FF3333;entryX=0;entryY=1;entryDx=0;entryDy=0;exitX=0.5;exitY=0;exitDx=0;exitDy=0;" parent="1" source="122" target="121" edge="1">
                    <mxGeometry width="50" height="50" relative="1" as="geometry">
                        <mxPoint x="650" y="-230" as="sourcePoint"/>
                        <mxPoint x="700" y="-280" as="targetPoint"/>
                    </mxGeometry>
                </mxCell>
                <mxCell id="128" value="" style="endArrow=none;html=1;fontSize=15;fontColor=#FF3333;entryX=1;entryY=1;entryDx=0;entryDy=0;exitX=0.5;exitY=0;exitDx=0;exitDy=0;" parent="1" source="123" target="121" edge="1">
                    <mxGeometry width="50" height="50" relative="1" as="geometry">
                        <mxPoint x="660" y="-260" as="sourcePoint"/>
                        <mxPoint x="710" y="-310" as="targetPoint"/>
                    </mxGeometry>
                </mxCell>
                <mxCell id="129" value="" style="endArrow=none;html=1;fontSize=15;fontColor=#FF3333;entryX=0.5;entryY=1;entryDx=0;entryDy=0;exitX=0.5;exitY=0;exitDx=0;exitDy=0;" parent="1" source="124" target="122" edge="1">
                    <mxGeometry width="50" height="50" relative="1" as="geometry">
                        <mxPoint x="430" y="-240" as="sourcePoint"/>
                        <mxPoint x="480" y="-290" as="targetPoint"/>
                    </mxGeometry>
                </mxCell>
                <mxCell id="130" value="" style="endArrow=none;html=1;fontSize=15;fontColor=#FF3333;entryX=0;entryY=1;entryDx=0;entryDy=0;exitX=0.5;exitY=0;exitDx=0;exitDy=0;" parent="1" source="125" target="124" edge="1">
                    <mxGeometry width="50" height="50" relative="1" as="geometry">
                        <mxPoint x="440" y="-220" as="sourcePoint"/>
                        <mxPoint x="490" y="-270" as="targetPoint"/>
                    </mxGeometry>
                </mxCell>
                <mxCell id="131" value="" style="endArrow=none;html=1;fontSize=15;fontColor=#FF3333;entryX=1;entryY=1;entryDx=0;entryDy=0;exitX=0.5;exitY=0;exitDx=0;exitDy=0;" parent="1" source="126" target="124" edge="1">
                    <mxGeometry width="50" height="50" relative="1" as="geometry">
                        <mxPoint x="600" y="-170" as="sourcePoint"/>
                        <mxPoint x="650" y="-220" as="targetPoint"/>
                    </mxGeometry>
                </mxCell>
                <mxCell id="143" value="" style="group" parent="1" vertex="1" connectable="0">
                    <mxGeometry x="640" y="-250" width="145" height="80" as="geometry"/>
                </mxCell>
                <mxCell id="134" value="" style="ellipse;whiteSpace=wrap;html=1;fillStyle=auto;fontSize=15;fillColor=#b0e3e6;strokeColor=#0e8088;opacity=70;" parent="143" vertex="1">
                    <mxGeometry width="120" height="80" as="geometry"/>
                </mxCell>
                <mxCell id="137" value="4" style="ellipse;whiteSpace=wrap;html=1;aspect=fixed;fillStyle=auto;fontSize=15;fontColor=#FF3333;fillColor=default;" parent="143" vertex="1">
                    <mxGeometry x="46.666666666666664" y="5.333333333333333" width="18.666666666666668" height="18.666666666666668" as="geometry"/>
                </mxCell>
                <mxCell id="138" value="5" style="ellipse;whiteSpace=wrap;html=1;aspect=fixed;fillStyle=auto;fontSize=15;fontColor=#FF3333;fillColor=default;" parent="143" vertex="1">
                    <mxGeometry x="19.999999999999996" y="48" width="18.666666666666668" height="18.666666666666668" as="geometry"/>
                </mxCell>
                <mxCell id="139" value="5" style="ellipse;whiteSpace=wrap;html=1;aspect=fixed;fillStyle=auto;fontSize=15;fontColor=#FF3333;fillColor=default;" parent="143" vertex="1">
                    <mxGeometry x="73.33333333333331" y="48" width="18.666666666666668" height="18.666666666666668" as="geometry"/>
                </mxCell>
                <mxCell id="141" value="" style="endArrow=none;html=1;fontSize=15;fontColor=#FF3333;entryX=0;entryY=1;entryDx=0;entryDy=0;exitX=0.5;exitY=0;exitDx=0;exitDy=0;" parent="143" source="138" target="137" edge="1">
                    <mxGeometry width="50" height="50" relative="1" as="geometry">
                        <mxPoint x="6.666666666666666" y="37.33333333333333" as="sourcePoint"/>
                        <mxPoint x="39.99999999999999" y="10.666666666666666" as="targetPoint"/>
                    </mxGeometry>
                </mxCell>
                <mxCell id="142" value="" style="endArrow=none;html=1;fontSize=15;fontColor=#FF3333;entryX=1;entryY=1;entryDx=0;entryDy=0;exitX=0.5;exitY=0;exitDx=0;exitDy=0;" parent="143" source="139" target="137" edge="1">
                    <mxGeometry width="50" height="50" relative="1" as="geometry">
                        <mxPoint x="113.33333333333331" y="64" as="sourcePoint"/>
                        <mxPoint x="146.66666666666663" y="37.33333333333333" as="targetPoint"/>
                    </mxGeometry>
                </mxCell>
                <mxCell id="160" value="父节点" style="text;html=1;strokeColor=none;fillColor=none;align=center;verticalAlign=middle;whiteSpace=wrap;rounded=0;" vertex="1" parent="143">
                    <mxGeometry x="73.33000000000004" y="-0.3299999999999841" width="60" height="30" as="geometry"/>
                </mxCell>
                <mxCell id="161" value="子节点" style="text;html=1;strokeColor=none;fillColor=none;align=center;verticalAlign=middle;whiteSpace=wrap;rounded=0;" vertex="1" parent="143">
                    <mxGeometry x="85" y="42" width="60" height="30" as="geometry"/>
                </mxCell>
                <mxCell id="151" value="" style="group" parent="1" vertex="1" connectable="0">
                    <mxGeometry x="690" y="-380" width="110" height="90.65" as="geometry"/>
                </mxCell>
                <mxCell id="147" value="" style="ellipse;whiteSpace=wrap;html=1;fillStyle=auto;fontSize=15;fontColor=#ffffff;fillColor=#6d8764;strokeColor=#3A5431;rotation=-75;gradientColor=none;opacity=70;" parent="151" vertex="1">
                    <mxGeometry x="-7.469880619278169" y="22.442875135235845" width="74.93976123855634" height="45.7642497295283" as="geometry"/>
                </mxCell>
                <mxCell id="148" value="2" style="ellipse;whiteSpace=wrap;html=1;aspect=fixed;fillStyle=auto;fontSize=15;fontColor=#FF3333;fillColor=default;" parent="151" vertex="1">
                    <mxGeometry x="24.955617321629685" y="15.630503253492126" width="17.279536251899522" height="17.279536251899522" as="geometry"/>
                </mxCell>
                <mxCell id="149" value="4" style="ellipse;whiteSpace=wrap;html=1;aspect=fixed;fillStyle=auto;fontSize=15;fontColor=#FF3333;fillColor=default;" parent="151" vertex="1">
                    <mxGeometry x="15.58814716681014" y="56.42314925195746" width="17.279536251899522" height="17.279536251899522" as="geometry"/>
                </mxCell>
                <mxCell id="150" value="" style="endArrow=none;html=1;fontSize=15;fontColor=#FF3333;entryX=0.5;entryY=1;entryDx=0;entryDy=0;exitX=0.5;exitY=0;exitDx=0;exitDy=0;" parent="151" source="149" target="148" edge="1">
                    <mxGeometry width="50" height="50" relative="1" as="geometry">
                        <mxPoint x="-17.19799837505825" y="76.81947225119013" as="sourcePoint"/>
                        <mxPoint x="6.2206770119906" y="51.3240685021493" as="targetPoint"/>
                    </mxGeometry>
                </mxCell>
                <mxCell id="158" value="父节点" style="text;html=1;strokeColor=none;fillColor=none;align=center;verticalAlign=middle;whiteSpace=wrap;rounded=0;" vertex="1" parent="151">
                    <mxGeometry x="42.24" y="9.27" width="60" height="30" as="geometry"/>
                </mxCell>
                <mxCell id="159" value="子节点" style="text;html=1;strokeColor=none;fillColor=none;align=center;verticalAlign=middle;whiteSpace=wrap;rounded=0;" vertex="1" parent="151">
                    <mxGeometry x="32.87" y="50.06" width="60" height="30" as="geometry"/>
                </mxCell>
                <mxCell id="163" value="4节点&lt;br&gt;是上一层的子节点&lt;br&gt;是下一层的父节点" style="text;html=1;strokeColor=none;fillColor=none;align=center;verticalAlign=middle;whiteSpace=wrap;rounded=0;" vertex="1" parent="1">
                    <mxGeometry x="750" y="-320" width="120" height="60" as="geometry"/>
                </mxCell>
            </root>
        </mxGraphModel>
    </diagram>
</mxfile>